<svg width="24" height="24" viewBox="0 0 24 24" fill="none" xmlns="http://www.w3.org/2000/svg">
<path d="M7.47445 10.6464L6.62089 11.5H7.828H19C19.2761 11.5 19.5 11.7239 19.5 12C19.5 12.2761 19.2761 12.5 19 12.5H7.828H6.62089L7.47445 13.3536L12.3534 18.2326C12.5486 18.4278 12.5486 18.7442 12.3534 18.9394C12.1582 19.1347 11.8418 19.1347 11.6466 18.9394L5.06066 12.3536C4.8654 12.1583 4.8654 11.8417 5.06066 11.6464L11.6466 5.06055C11.8418 4.86535 12.1582 4.86535 12.3534 5.06055C12.5486 5.25576 12.5486 5.57224 12.3534 5.76745L7.47445 10.6464Z" fill="#111111" stroke="#111111"/>
</svg>
