<svg width="120" height="120" viewBox="0 0 120 120" fill="none" xmlns="http://www.w3.org/2000/svg">
<g id="icon/sidemenu/chats">
<path id="icon" d="M100 10H20C14.5 10 10.05 14.5 10.05 20L10 110L30 90H100C105.5 90 110 85.5 110 80V20C110 14.5 105.5 10 100 10ZM35 45H85C87.75 45 90 47.25 90 50C90 52.75 87.75 55 85 55H35C32.25 55 30 52.75 30 50C30 47.25 32.25 45 35 45ZM65 70H35C32.25 70 30 67.75 30 65C30 62.25 32.25 60 35 60H65C67.75 60 70 62.25 70 65C70 67.75 67.75 70 65 70ZM85 40H35C32.25 40 30 37.75 30 35C30 32.25 32.25 30 35 30H85C87.75 30 90 32.25 90 35C90 37.75 87.75 40 85 40Z" fill="#F2F2F2"/>
</g>
</svg>
