<svg width="19" height="19" viewBox="0 0 19 19" fill="none" xmlns="http://www.w3.org/2000/svg">
<path fill-rule="evenodd" clip-rule="evenodd" d="M16.7846 9.23071C16.7846 13.4312 13.299 16.9186 9.08789 16.9186C4.88648 16.9186 1.4 13.4321 1.4 9.23071C1.4 5.02754 4.87945 1.54282 9.0791 1.54282C13.2919 1.54282 16.7846 5.03193 16.7846 9.23071ZM9.08789 18.3186C14.0713 18.3186 18.1846 14.2053 18.1846 9.23071C18.1846 4.2561 14.0625 0.142822 9.0791 0.142822C4.10449 0.142822 0 4.2561 0 9.23071C0 14.2053 4.11328 18.3186 9.08789 18.3186ZM5.57215 9.10309L5.57435 9.10386C5.57284 9.10342 5.57213 9.10313 5.57215 9.10309ZM5.57694 9.37447L5.57469 9.3752C5.57467 9.37516 5.57539 9.37489 5.57694 9.37447ZM12.5979 9.10456L12.6002 9.10382C12.6002 9.10385 12.5995 9.10414 12.5979 9.10456ZM4.68457 9.24829C4.68457 9.78442 5.08008 10.1096 5.63379 10.1096H12.542C13.0957 10.1096 13.4824 9.78442 13.4824 9.24829C13.4824 8.71216 13.1133 8.36938 12.542 8.36938H5.63379C5.0625 8.36938 4.68457 8.71216 4.68457 9.24829Z" fill="#4799E3"/>
</svg>
