<svg width="18" height="11" viewBox="0 0 18 11" fill="none" xmlns="http://www.w3.org/2000/svg">
<g id="icon/message/message-status" clip-path="url(#clip0_8_11267)">
<g id="Vector">
<path d="M11.2958 1.14029L4.42788 7.56898L2.24676 5.52337C1.86215 5.16265 1.26353 5.16256 0.878809 5.52316L0.778051 5.6176C0.356627 6.0126 0.356521 6.68147 0.777819 7.0766L3.74438 9.85893C4.12884 10.2195 4.72717 10.2198 5.11194 9.85952L12.7639 2.69531C13.1857 2.3004 13.186 1.63123 12.7645 1.23595L12.6633 1.14098C12.2789 0.78042 11.6806 0.780118 11.2958 1.14029Z" fill="#4799E3"/>
<path d="M17.1203 1.14099C16.7359 0.780422 16.1376 0.78012 15.7528 1.1403L8.88391 7.56998L8.08933 8.30662C7.66051 8.70418 7.66282 9.38327 8.09434 9.7779L8.20111 9.87554C8.58648 10.228 9.17815 10.2245 9.55939 9.86762L17.2208 2.69531C17.6427 2.30041 17.643 1.63121 17.2215 1.23591L17.1203 1.14099Z" fill="#4799E3"/>
</g>
</g>
<defs>
<clipPath id="clip0_8_11267">
<rect width="18" height="10" fill="white" transform="translate(0 0.5)"/>
</clipPath>
</defs>
</svg>
