<svg width="19" height="19" viewBox="0 0 19 19" fill="none" xmlns="http://www.w3.org/2000/svg">
<path d="M9.08789 18.3186C14.0713 18.3186 18.1846 14.2053 18.1846 9.23071C18.1846 4.2561 14.0625 0.142822 9.0791 0.142822C4.10449 0.142822 0 4.2561 0 9.23071C0 14.2053 4.11328 18.3186 9.08789 18.3186ZM4.83398 9.2395C4.83398 8.72095 5.20312 8.3606 5.71289 8.3606H8.21777V5.85571C8.21777 5.34595 8.56934 4.9856 9.07031 4.9856C9.58887 4.9856 9.94922 5.34595 9.94922 5.85571V8.3606H12.4629C12.9639 8.3606 13.333 8.72095 13.333 9.2395C13.333 9.74048 12.9639 10.1008 12.4629 10.1008H9.94922V12.6057C9.94922 13.1067 9.58887 13.4758 9.07031 13.4758C8.56934 13.4758 8.21777 13.1067 8.21777 12.6057V10.1008H5.71289C5.20312 10.1008 4.83398 9.74048 4.83398 9.2395Z" fill="#4799E3"/>
</svg>
