<svg width="24" height="25" viewBox="0 0 24 25" fill="none" xmlns="http://www.w3.org/2000/svg">
<path fill-rule="evenodd" clip-rule="evenodd" d="M19.7846 12.2307C19.7846 16.4312 16.299 19.9186 12.0879 19.9186C7.88648 19.9186 4.4 16.4321 4.4 12.2307C4.4 8.02754 7.87945 4.54282 12.0791 4.54282C16.2919 4.54282 19.7846 8.03193 19.7846 12.2307ZM12.0879 21.3186C17.0713 21.3186 21.1846 17.2053 21.1846 12.2307C21.1846 7.2561 17.0625 3.14282 12.0791 3.14282C7.10449 3.14282 3 7.2561 3 12.2307C3 17.2053 7.11328 21.3186 12.0879 21.3186ZM8.57215 12.1031L8.57435 12.1039C8.57284 12.1034 8.57213 12.1031 8.57215 12.1031ZM8.57694 12.3745L8.57469 12.3752C8.57467 12.3752 8.57539 12.3749 8.57694 12.3745ZM15.5979 12.1046L15.6002 12.1038C15.6002 12.1039 15.5995 12.1041 15.5979 12.1046ZM7.68457 12.2483C7.68457 12.7844 8.08008 13.1096 8.63379 13.1096H15.542C16.0957 13.1096 16.4824 12.7844 16.4824 12.2483C16.4824 11.7122 16.1133 11.3694 15.542 11.3694H8.63379C8.0625 11.3694 7.68457 11.7122 7.68457 12.2483Z" fill="#4799E3"/>
</svg>
