<svg width="15" height="15" viewBox="0 0 15 15" fill="none" xmlns="http://www.w3.org/2000/svg">
<path d="M10.9458 9.52847H10.2975L10.0677 9.30687C11.0525 8.15786 11.5614 6.59028 11.2823 4.92421C10.8966 2.6426 8.99251 0.820595 6.69449 0.54155C3.22283 0.114774 0.301053 3.03655 0.727829 6.50821C1.00687 8.80623 2.82888 10.7103 5.11049 11.096C6.77656 11.3751 8.34414 10.8662 9.49315 9.88138L9.71475 10.1112V10.7596L13.2028 14.2476C13.5393 14.5841 14.0892 14.5841 14.4257 14.2476C14.7622 13.9111 14.7622 13.3612 14.4257 13.0247L10.9458 9.52847ZM6.02149 9.52847C3.97789 9.52847 2.32824 7.87881 2.32824 5.83521C2.32824 3.79161 3.97789 2.14196 6.02149 2.14196C8.06509 2.14196 9.71475 3.79161 9.71475 5.83521C9.71475 7.87881 8.06509 9.52847 6.02149 9.52847Z" fill="#111111" fill-opacity="0.2"/>
</svg>
