<svg width="80" height="80" viewBox="0 0 80 80" fill="none" xmlns="http://www.w3.org/2000/svg">
<rect width="80" height="80" rx="22.8571" fill="#B2DAFF" fill-opacity="0.2"/>
<g opacity="0.5">
<path d="M24 30.8572C24 31.4095 24.4477 31.8572 25 31.8572H31C31.5523 31.8572 32 31.4095 32 30.8572V24.8572C32 24.3049 31.5523 23.8572 31 23.8572H25C24.4477 23.8572 24 24.3049 24 24.8572V30.8572ZM36 54.8572C36 55.4095 36.4477 55.8572 37 55.8572H43C43.5523 55.8572 44 55.4095 44 54.8572V48.8572C44 48.3049 43.5523 47.8572 43 47.8572H37C36.4477 47.8572 36 48.3049 36 48.8572V54.8572ZM24 54.8572C24 55.4095 24.4477 55.8572 25 55.8572H31C31.5523 55.8572 32 55.4095 32 54.8572V48.8572C32 48.3049 31.5523 47.8572 31 47.8572H25C24.4477 47.8572 24 48.3049 24 48.8572V54.8572ZM24 42.8572C24 43.4095 24.4477 43.8572 25 43.8572H31C31.5523 43.8572 32 43.4095 32 42.8572V36.8572C32 36.3049 31.5523 35.8572 31 35.8572H25C24.4477 35.8572 24 36.3049 24 36.8572V42.8572ZM36 42.8572C36 43.4095 36.4477 43.8572 37 43.8572H43C43.5523 43.8572 44 43.4095 44 42.8572V36.8572C44 36.3049 43.5523 35.8572 43 35.8572H37C36.4477 35.8572 36 36.3049 36 36.8572V42.8572ZM49 23.8572C48.4477 23.8572 48 24.3049 48 24.8572V30.8572C48 31.4095 48.4477 31.8572 49 31.8572H55C55.5523 31.8572 56 31.4095 56 30.8572V24.8572C56 24.3049 55.5523 23.8572 55 23.8572H49ZM36 30.8572C36 31.4095 36.4477 31.8572 37 31.8572H43C43.5523 31.8572 44 31.4095 44 30.8572V24.8572C44 24.3049 43.5523 23.8572 43 23.8572H37C36.4477 23.8572 36 24.3049 36 24.8572V30.8572ZM48 42.8572C48 43.4095 48.4477 43.8572 49 43.8572H55C55.5523 43.8572 56 43.4095 56 42.8572V36.8572C56 36.3049 55.5523 35.8572 55 35.8572H49C48.4477 35.8572 48 36.3049 48 36.8572V42.8572ZM48 54.8572C48 55.4095 48.4477 55.8572 49 55.8572H55C55.5523 55.8572 56 55.4095 56 54.8572V48.8572C56 48.3049 55.5523 47.8572 55 47.8572H49C48.4477 47.8572 48 48.3049 48 48.8572V54.8572Z" fill="#7F7F7F"/>
</g>
</svg>
