<svg width="24" height="24" viewBox="0 0 24 24" fill="none" xmlns="http://www.w3.org/2000/svg">
<path d="M12.7895 21.5C13.0241 21.5 13.2256 21.4323 13.394 21.297C13.5624 21.1617 13.6707 20.9767 13.7188 20.7421L14.1519 18.9015C14.3083 18.8474 14.4602 18.7902 14.6075 18.7301C14.7549 18.6699 14.8977 18.6068 15.0361 18.5406L16.6511 19.5331C16.8436 19.6594 17.0466 19.712 17.2601 19.691C17.4737 19.6699 17.6617 19.5782 17.8241 19.4158L18.9248 18.315C19.0932 18.1526 19.1865 17.9617 19.2045 17.7421C19.2226 17.5226 19.1654 17.3165 19.0331 17.1241L18.0496 15.518C18.1158 15.3797 18.1789 15.2383 18.2391 15.094C18.2992 14.9496 18.3534 14.8053 18.4015 14.6609L20.2511 14.2188C20.4857 14.1707 20.6692 14.0639 20.8015 13.8985C20.9338 13.7331 21 13.5301 21 13.2895V11.7466C21 11.518 20.9338 11.3195 20.8015 11.1511C20.6692 10.9827 20.4857 10.8744 20.2511 10.8263L18.4105 10.3842C18.3564 10.2158 18.3008 10.0594 18.2436 9.91504C18.1865 9.77068 18.1278 9.63534 18.0677 9.50902L19.0511 7.88496C19.1835 7.68647 19.2406 7.48045 19.2226 7.26692C19.2045 7.05338 19.1113 6.86541 18.9429 6.70301L17.8241 5.60226C17.6556 5.44586 17.4722 5.35564 17.2737 5.33158C17.0752 5.30752 16.8767 5.35263 16.6782 5.46692L15.0361 6.47744C14.9038 6.41128 14.7654 6.34962 14.6211 6.29248C14.4767 6.23534 14.3233 6.17669 14.1609 6.11654L13.7188 4.24887C13.6707 4.01429 13.5624 3.83083 13.394 3.6985C13.2256 3.56617 13.0241 3.5 12.7895 3.5H11.2195C10.9789 3.5 10.7759 3.56767 10.6105 3.70301C10.4451 3.83835 10.3353 4.0203 10.2812 4.24887L9.8391 6.0985C9.68872 6.15865 9.53684 6.2188 9.38346 6.27895C9.23008 6.3391 9.08722 6.40226 8.95489 6.46842L7.3218 5.46692C7.11729 5.35263 6.91729 5.30752 6.7218 5.33158C6.52632 5.35564 6.34436 5.44586 6.17594 5.60226L5.05714 6.70301C4.88872 6.86541 4.79549 7.05338 4.77744 7.26692C4.7594 7.48045 4.81654 7.68647 4.94887 7.88496L5.93233 9.50902C5.87218 9.63534 5.81353 9.77068 5.75639 9.91504C5.69925 10.0594 5.64361 10.2158 5.58947 10.3842L3.74887 10.8263C3.50827 10.8744 3.32331 10.9827 3.19398 11.1511C3.06466 11.3195 3 11.518 3 11.7466V13.2895C3 13.5301 3.06466 13.7331 3.19398 13.8985C3.32331 14.0639 3.50827 14.1707 3.74887 14.2188L5.60752 14.6609C5.64962 14.8053 5.69925 14.9496 5.75639 15.094C5.81353 15.2383 5.8782 15.3797 5.95038 15.518L4.96692 17.1241C4.82857 17.3165 4.76992 17.5226 4.79098 17.7421C4.81203 17.9617 4.90677 18.1526 5.07519 18.315L6.17594 19.4158C6.33233 19.5782 6.5188 19.6699 6.73534 19.691C6.95188 19.712 7.15639 19.6594 7.34887 19.5331L8.96391 18.5406C9.09624 18.6068 9.23759 18.6699 9.38797 18.7301C9.53835 18.7902 9.68872 18.8474 9.8391 18.9015L10.2812 20.7421C10.3353 20.9767 10.4451 21.1617 10.6105 21.297C10.7759 21.4323 10.9789 21.5 11.2195 21.5H12.7895ZM12.0045 15.5C11.4511 15.5 10.9474 15.3632 10.4932 15.0895C10.0391 14.8158 9.67669 14.4519 9.40601 13.9977C9.13534 13.5436 9 13.0398 9 12.4865C9 11.9391 9.13534 11.4398 9.40601 10.9887C9.67669 10.5376 10.0391 10.1767 10.4932 9.90601C10.9474 9.63534 11.4511 9.5 12.0045 9.5C12.5519 9.5 13.0526 9.63534 13.5068 9.90601C13.9609 10.1767 14.3233 10.5376 14.594 10.9887C14.8647 11.4398 15 11.9391 15 12.4865C15 13.0398 14.8647 13.5436 14.594 13.9977C14.3233 14.4519 13.9609 14.8158 13.5068 15.0895C13.0526 15.3632 12.5519 15.5 12.0045 15.5Z" stroke="#4799E3" stroke-width="1.7" stroke-linejoin="round"/>
</svg>
